<?xml version="1.0" encoding="UTF-8" standalone="no"?>
<!-- Generator: Adobe Illustrator 16.0.0, SVG Export Plug-In . SVG Version: 6.00 Build 0)  -->

<svg
   xmlns:dc="http://purl.org/dc/elements/1.1/"
   xmlns:cc="http://creativecommons.org/ns#"
   xmlns:rdf="http://www.w3.org/1999/02/22-rdf-syntax-ns#"
   xmlns:svg="http://www.w3.org/2000/svg"
   xmlns="http://www.w3.org/2000/svg"
   xmlns:sodipodi="http://sodipodi.sourceforge.net/DTD/sodipodi-0.dtd"
   xmlns:inkscape="http://www.inkscape.org/namespaces/inkscape"
   version="1.1"
   id="Capa_1"
   x="0px"
   y="0px"
   width="401.279px"
   height="401.279px"
   viewBox="0 0 401.279 401.279"
   style="enable-background:new 0 0 401.279 401.279;"
   xml:space="preserve"
   inkscape:version="0.91 r13725"
   sodipodi:docname="transp.svg"><metadata
     id="metadata41"><rdf:RDF><cc:Work
         rdf:about=""><dc:format>image/svg+xml</dc:format><dc:type
           rdf:resource="http://purl.org/dc/dcmitype/StillImage" /></cc:Work></rdf:RDF></metadata><defs
     id="defs39" /><sodipodi:namedview
     pagecolor="#ffffff"
     bordercolor="#666666"
     borderopacity="1"
     objecttolerance="10"
     gridtolerance="10"
     guidetolerance="10"
     inkscape:pageopacity="0"
     inkscape:pageshadow="2"
     inkscape:window-width="640"
     inkscape:window-height="480"
     id="namedview37"
     showgrid="false"
     inkscape:zoom="0.5881195"
     inkscape:cx="200.6395"
     inkscape:cy="200.6395"
     inkscape:window-x="0"
     inkscape:window-y="28"
     inkscape:window-maximized="0"
     inkscape:current-layer="Capa_1" /><g
     id="g3"
     style="fill:#ffffff"><path
       d="M374.878,79.565h-15.102V52.723C359.777,23.605,336.172,0,307.054,0H94.225C65.107,0,41.502,23.605,41.502,52.723v26.842   H26.401c-6.063,0-10.978,4.915-10.978,10.979v60.812c0,6.063,4.915,10.978,10.978,10.978h15.102v131.081   c-5.874,5.265-9.572,12.908-9.572,21.417v20.316c0,15.883,12.875,28.758,28.758,28.758h3.558v28.914   c0,4.672,3.79,8.459,8.462,8.459h38.908c4.672,0,8.458-3.787,8.458-8.459v-28.914h161.13v28.914c0,4.672,3.786,8.459,8.459,8.459   h38.907c4.672,0,8.461-3.787,8.461-8.459v-28.914h3.559c15.882,0,28.758-12.875,28.758-28.758v-20.316   c0-8.508-3.698-16.152-9.572-21.417V162.333h15.102c6.062,0,10.978-4.915,10.978-10.978V90.543   C385.856,84.48,380.942,79.565,374.878,79.565z M327.175,83.855v129.731H215.019V83.855H327.175z M144.722,27.49h111.836   c7.765,0,14.06,6.294,14.06,14.06c0,7.764-6.294,14.059-14.06,14.059H144.722c-7.765,0-14.06-6.295-14.06-14.059   C130.662,33.784,136.957,27.49,144.722,27.49z M74.105,83.855h112.156v129.731H74.105V83.855z M124.303,271.463   c0,7.643-6.216,13.858-13.86,13.858H87.572c-7.631,0-13.846-6.216-13.846-13.858v-15.42c0-7.645,6.215-13.859,13.846-13.859h22.871   c7.644,0,13.86,6.215,13.86,13.859V271.463z M276.978,271.463v-15.42c0-7.645,6.215-13.859,13.859-13.859h22.871   c7.631,0,13.846,6.215,13.846,13.859v15.42c0,7.643-6.215,13.858-13.846,13.858h-22.871   C283.194,285.322,276.978,279.105,276.978,271.463z"
       id="path5"
       style="fill:#ffffff" /></g><g
     id="g7" /><g
     id="g9" /><g
     id="g11" /><g
     id="g13" /><g
     id="g15" /><g
     id="g17" /><g
     id="g19" /><g
     id="g21" /><g
     id="g23" /><g
     id="g25" /><g
     id="g27" /><g
     id="g29" /><g
     id="g31" /><g
     id="g33" /><g
     id="g35" /></svg>